<?xml version="1.0" standalone="no"?>
<!DOCTYPE svg PUBLIC "-//W3C//DTD SVG 20010904//EN"
 "http://www.w3.org/TR/2001/REC-SVG-20010904/DTD/svg10.dtd">
<svg version="1.0" xmlns="http://www.w3.org/2000/svg"
 width="290.000000pt" height="290.000000pt" viewBox="0 0 290.000000 290.000000"
 preserveAspectRatio="xMidYMid meet">
<metadata>
Created by potrace 1.11, written by Peter Selinger 2001-2013
</metadata>
<g transform="translate(0.000000,290.000000) scale(0.100000,-0.100000)"
fill="#000000" stroke="none">
<path d="M355 1883 c-11 -2 -67 -4 -125 -5 l-105 -3 -1 -32 c0 -34 3 -36 59
-36 13 0 17 -8 17 -36 1 -49 1 -540 0 -568 0 -20 -5 -23 -40 -23 -39 0 -40 -1
-40 -33 l0 -33 185 0 185 0 0 31 c0 30 -1 31 -47 34 -95 4 -88 -4 -88 106 l0
99 77 2 c204 5 315 109 307 287 -5 112 -64 185 -165 203 -32 6 -192 11 -219 7z
m155 -81 c73 -36 97 -172 48 -269 -30 -61 -66 -81 -143 -79 l-60 1 -1 175 c-1
121 2 177 10 182 21 14 111 8 146 -10z"/>
<path d="M1430 1725 c-17 -21 -5 -45 24 -45 25 0 39 19 28 37 -13 18 -40 22
-52 8z"/>
<path d="M1767 1728 c-8 -5 -5 -9 8 -15 18 -7 20 -18 20 -138 0 -118 -2 -131
-19 -138 -28 -11 -14 -18 43 -21 36 -1 51 2 51 11 0 7 -7 13 -15 13 -12 0 -14
23 -14 133 0 72 0 140 0 150 -1 13 -8 17 -31 15 -17 -1 -36 -6 -43 -10z"/>
<path d="M1273 1666 c-9 -20 -23 -36 -30 -36 -7 0 -13 -4 -13 -10 0 -5 7 -10
15 -10 12 0 15 -17 15 -90 0 -75 3 -91 18 -99 20 -11 63 -7 89 8 19 11 15 13
-27 15 -24 1 -25 3 -28 84 l-3 82 31 0 c20 0 30 5 30 15 0 10 -9 13 -30 10
-27 -3 -30 -1 -30 25 0 43 -18 46 -37 6z"/>
<path d="M862 1625 c-44 -19 -34 -37 13 -24 20 6 44 7 54 4 21 -6 35 -54 17
-56 -54 -6 -71 -10 -91 -23 -74 -48 -12 -141 67 -101 37 18 39 18 35 3 -1 -8
10 -13 31 -13 32 -1 41 8 22 20 -5 3 -10 41 -10 84 0 47 -5 84 -13 95 -17 24
-84 30 -125 11z m88 -129 c0 -36 -14 -53 -43 -53 -19 0 -34 38 -22 57 7 11 41
28 58 29 4 1 7 -14 7 -33z"/>
<path d="M1068 1633 c-22 -6 -23 -19 -3 -27 12 -4 15 -23 15 -85 0 -61 -3 -80
-15 -85 -8 -3 -15 -9 -15 -13 0 -7 32 -8 114 -4 23 1 16 11 -11 15 -15 2 -18
14 -21 71 -3 74 3 85 51 85 22 0 27 4 27 25 0 32 -27 33 -64 4 l-26 -20 0 20
c0 21 -13 24 -52 14z"/>
<path d="M1418 1632 c-22 -4 -23 -18 -3 -26 23 -8 22 -161 -1 -170 -27 -10 -8
-19 46 -20 34 -1 50 3 50 12 0 6 -6 11 -12 10 -10 -2 -14 24 -16 99 -3 112 0
108 -64 95z"/>
<path d="M1578 1627 c-16 -6 -28 -17 -28 -24 0 -14 22 -18 34 -6 12 13 58 14
72 2 15 -12 19 -48 7 -50 -81 -8 -123 -33 -123 -73 0 -51 50 -77 101 -51 34
18 40 19 37 3 -2 -8 9 -13 30 -13 20 -1 32 4 32 13 0 7 -4 10 -10 7 -6 -4 -10
18 -11 57 -1 83 -6 119 -18 131 -14 14 -90 16 -123 4z m92 -138 c0 -46 -62
-62 -73 -19 -5 19 15 43 43 52 23 8 30 0 30 -33z"/>
<path d="M2056 1414 c-9 -23 10 -43 35 -37 14 4 19 12 17 27 -4 26 -43 34 -52
10z"/>
<path d="M1905 1368 c-4 -13 -17 -31 -29 -40 -18 -15 -19 -18 -3 -18 15 0 17
-11 17 -89 0 -104 9 -118 67 -104 45 10 56 32 13 25 l-30 -4 0 86 0 86 30 0
c17 0 30 5 30 10 0 6 -13 10 -30 10 -27 0 -30 3 -30 30 0 36 -25 41 -35 8z"/>
<path d="M645 1330 c-53 -14 -75 -47 -75 -113 0 -83 66 -126 143 -93 49 20 47
27 -7 20 -36 -5 -47 -3 -65 15 -11 11 -21 30 -21 41 0 21 13 24 93 20 36 -1
37 0 37 32 0 61 -46 95 -105 78z m45 -35 c20 -25 8 -49 -27 -52 -38 -3 -46 7
-33 41 11 29 40 35 60 11z"/>
<path d="M896 1321 c-28 -15 -36 -16 -36 -5 0 9 -12 14 -35 14 -35 0 -47 -16
-20 -26 12 -5 15 -25 15 -90 0 -68 -3 -84 -15 -84 -8 0 -15 -3 -15 -7 0 -10
106 -10 116 0 4 4 -2 7 -14 7 -24 0 -24 0 -24 84 1 65 11 79 55 73 22 -3 27 0
27 19 0 33 -12 36 -54 15z"/>
<path d="M1278 1321 c-16 -11 -23 -12 -26 -3 -4 14 -72 16 -72 2 0 -5 7 -13
15 -18 13 -7 15 -30 13 -138 -2 -97 -6 -128 -15 -127 -7 2 -13 -2 -13 -7 0 -5
25 -10 55 -10 35 0 55 4 55 12 0 6 -3 8 -7 5 -12 -12 -33 15 -33 43 0 25 4 28
45 33 66 10 97 42 103 109 3 43 0 58 -17 79 -25 32 -73 42 -103 20z m46 -30
c20 -22 28 -84 15 -119 -11 -29 -55 -50 -71 -34 -19 19 -12 144 9 160 22 16
27 15 47 -7z"/>
<path d="M1489 1318 c-37 -23 -52 -61 -46 -117 7 -62 34 -86 98 -85 31 0 56 6
65 16 15 14 12 15 -27 11 -50 -6 -89 19 -89 56 0 19 5 21 65 21 l65 0 0 33 c0
18 -7 42 -15 54 -20 29 -78 34 -116 11z m65 -14 c9 -8 16 -26 16 -39 0 -21 -4
-23 -41 -22 -37 1 -40 3 -34 26 4 14 14 31 23 38 21 16 18 16 36 -3z"/>
<path d="M1733 1328 c-50 -13 -68 -42 -68 -109 0 -47 4 -63 22 -80 24 -25 84
-33 120 -16 35 16 28 26 -14 20 -56 -7 -75 12 -81 79 -4 47 -1 59 17 77 29 29
50 26 63 -9 13 -38 32 -34 36 7 3 28 0 31 -31 35 -19 2 -48 0 -64 -4z"/>
<path d="M2063 1332 c-34 -3 -44 -19 -18 -28 12 -5 15 -25 15 -90 0 -68 -3
-84 -15 -84 -8 0 -15 -3 -15 -7 0 -5 25 -8 55 -8 30 0 55 3 55 8 0 4 -7 7 -15
7 -12 0 -15 18 -15 99 0 55 -3 101 -7 103 -5 2 -23 2 -40 0z"/>
<path d="M2463 1324 c-21 -8 -39 -14 -39 -14 -1 0 -7 -14 -14 -30 -16 -39 -8
-115 15 -140 24 -26 78 -35 115 -20 43 18 50 34 11 25 -53 -11 -89 2 -96 36
-4 17 -4 33 -2 36 3 3 33 5 66 4 l61 -1 0 33 c0 67 -46 95 -117 71z m61 -30
c14 -37 7 -51 -29 -52 -41 -2 -48 8 -35 42 11 30 54 36 64 10z"/>
<path d="M999 1309 c-34 -34 -8 -84 56 -109 34 -13 52 -40 40 -60 -11 -18 -64
-11 -77 10 -16 26 -38 26 -38 1 0 -24 7 -28 50 -36 48 -9 88 3 107 31 22 34 4
65 -56 95 -56 29 -68 64 -25 75 22 6 31 3 42 -14 20 -30 40 -28 34 3 -4 23 -9
25 -58 25 -41 0 -59 -5 -75 -21z"/>
<path d="M2150 1321 c0 -5 5 -11 10 -13 6 -2 28 -46 49 -98 54 -131 66 -132
115 -4 21 54 45 104 54 111 15 10 10 12 -33 12 -43 0 -48 -1 -33 -13 16 -12
16 -17 -4 -79 -12 -37 -28 -67 -35 -67 -7 0 -12 3 -11 8 1 4 -7 34 -17 66 -15
45 -17 60 -7 64 29 9 8 22 -38 22 -27 0 -50 -4 -50 -9z"/>
<path d="M2646 1317 c-12 -9 -17 -23 -14 -47 3 -30 10 -38 51 -60 70 -37 77
-80 12 -80 -25 0 -35 5 -40 20 -9 28 -37 26 -33 -2 7 -51 151 -45 164 6 9 36
-12 64 -64 89 -57 27 -70 62 -26 73 21 5 31 2 45 -14 28 -35 48 -27 33 12 -8
20 -102 22 -128 3z"/>
</g>
</svg>
